<svg xmlns="http://www.w3.org/2000/svg" xmlns:xlink="http://www.w3.org/1999/xlink" width="1024" zoomAndPan="magnify" viewBox="0 0 768 576" height="768" preserveAspectRatio="xMidYMid meet" version="1.0"><defs><g/><clipPath id="d9354e629e"><path d="M 268.800781 172.800781 L 499.050781 172.800781 L 499.050781 403.050781 L 268.800781 403.050781 Z M 268.800781 172.800781 " clip-rule="nonzero"/></clipPath><clipPath id="6b59980417"><path d="M 298 201 L 470.695312 201 L 470.695312 375 L 298 375 Z M 298 201 " clip-rule="nonzero"/></clipPath></defs><rect x="-76.8" width="921.6" fill="#ffffff" y="-57.6" height="691.2" fill-opacity="1"/><rect x="-76.8" width="921.6" fill="#ffffff" y="-57.6" height="691.2" fill-opacity="1"/><rect x="-76.8" width="921.6" fill="#e3fbf4" y="-57.6" height="691.2" fill-opacity="1"/><g clip-path="url(#d9354e629e)"><path fill="#e3fbf4" d="M 268.800781 172.800781 L 499.050781 172.800781 L 499.050781 403.050781 L 268.800781 403.050781 Z M 268.800781 172.800781 " fill-opacity="1" fill-rule="nonzero"/></g><g clip-path="url(#6b59980417)"><path fill="#117811" d="M 370.796875 201.820312 C 366.109375 201.820312 361.882812 202.917969 358.628906 205.242188 C 355.371094 207.566406 353.183594 211.359375 353.183594 215.515625 L 353.183594 219.429688 C 348.472656 219.429688 344.269531 220.53125 341.011719 222.855469 C 337.757812 225.183594 335.570312 228.976562 335.570312 233.128906 L 335.570312 256.613281 L 314.042969 256.613281 C 310.328125 256.613281 306.449219 257.699219 303.402344 260.34375 C 300.355469 262.988281 298.390625 267.246094 298.390625 272.269531 L 298.390625 319.234375 C 298.390625 329.28125 305.734375 336.847656 314.046875 336.847656 L 335.574219 336.847656 L 335.574219 358.375 C 335.574219 362.097656 336.710938 365.910156 339.363281 368.957031 C 342.015625 372.003906 346.207031 374.03125 351.226562 374.03125 L 398.195312 374.03125 C 408.238281 374.03125 415.808594 366.683594 415.808594 358.375 L 415.808594 336.847656 L 439.289062 336.847656 C 443.445312 336.847656 447.238281 334.660156 449.5625 331.40625 C 451.890625 328.148438 452.992188 323.945312 452.992188 319.238281 L 456.902344 319.238281 C 461.058594 319.238281 464.792969 316.988281 467.117188 313.734375 C 469.441406 310.476562 470.601562 306.308594 470.601562 301.625 L 470.601562 276.183594 C 470.648438 273.964844 468.46875 271.964844 466.261719 272.207031 C 464.335938 272.417969 462.734375 274.25 462.773438 276.183594 L 462.773438 301.625 C 462.773438 305.011719 461.882812 307.628906 460.757812 309.207031 C 459.628906 310.785156 458.511719 311.410156 456.902344 311.410156 L 452.992188 311.410156 L 452.992188 272.269531 C 452.992188 267.5625 451.804688 263.550781 449.261719 260.710938 C 446.714844 257.871094 443.007812 256.613281 439.292969 256.613281 L 415.808594 256.613281 L 415.808594 233.128906 C 415.808594 229.414062 414.550781 225.644531 411.710938 223.101562 C 408.871094 220.554688 404.859375 219.429688 400.152344 219.429688 L 361.011719 219.429688 L 361.011719 215.515625 C 361.011719 213.90625 361.636719 212.730469 363.214844 211.605469 C 364.792969 210.476562 367.414062 209.644531 370.796875 209.644531 L 417.765625 209.644531 C 423.871094 209.644531 427.421875 214.117188 427.550781 217.472656 C 427.550781 217.492188 427.550781 217.515625 427.550781 217.535156 L 427.550781 240.957031 C 427.550781 243.007812 429.414062 244.871094 431.464844 244.871094 L 454.945312 244.871094 C 458.164062 244.871094 462.773438 248.519531 462.773438 254.65625 L 462.773438 260.527344 C 462.746094 262.597656 464.621094 264.496094 466.6875 264.496094 C 468.753906 264.496094 470.632812 262.597656 470.601562 260.527344 L 470.601562 254.65625 C 470.601562 244.652344 463.257812 237.042969 454.945312 237.042969 L 435.375 237.042969 L 435.375 217.351562 C 435.15625 209.1875 427.769531 201.820312 417.765625 201.820312 Z M 353.183594 227.257812 L 400.152344 227.257812 C 403.59375 227.257812 405.457031 228.082031 406.449219 228.972656 C 407.445312 229.863281 407.980469 231.023438 407.980469 233.128906 L 407.980469 260.527344 C 407.980469 262.574219 409.84375 264.441406 411.894531 264.441406 L 439.289062 264.441406 C 441.394531 264.441406 442.558594 264.914062 443.449219 265.90625 C 444.339844 266.902344 445.164062 268.828125 445.164062 272.269531 L 445.164062 319.234375 C 445.164062 322.675781 444.316406 325.261719 443.203125 326.820312 C 442.09375 328.375 440.957031 329.023438 439.292969 329.023438 L 411.894531 329.023438 C 409.84375 329.023438 407.980469 330.886719 407.980469 332.9375 L 407.980469 358.378906 C 407.980469 361.707031 404.449219 366.203125 398.195312 366.203125 L 351.226562 366.203125 C 348.101562 366.203125 346.425781 365.191406 345.234375 363.820312 C 344.042969 362.449219 343.398438 360.476562 343.398438 358.378906 L 343.398438 332.9375 C 343.398438 330.886719 341.535156 329.023438 339.484375 329.023438 L 314.046875 329.023438 C 310.710938 329.023438 306.21875 325.488281 306.21875 319.238281 L 306.21875 272.269531 C 306.21875 269.144531 307.171875 267.464844 308.542969 266.277344 C 309.910156 265.089844 311.941406 264.441406 314.046875 264.441406 L 339.484375 264.441406 C 341.535156 264.441406 343.398438 262.578125 343.398438 260.527344 L 343.398438 233.128906 C 343.398438 231.464844 343.984375 230.328125 345.539062 229.21875 C 347.097656 228.105469 349.746094 227.257812 353.183594 227.257812 Z M 390.792969 272.269531 C 386.0625 272.164062 380.828125 274.285156 375.871094 279.242188 L 374.707031 280.402344 L 373.546875 279.238281 C 369.300781 274.992188 364.816406 272.859375 360.644531 272.390625 C 359.253906 272.234375 357.910156 272.242188 356.605469 272.453125 C 351.808594 273.5 347.285156 276.261719 344.558594 279.238281 C 337.78125 286.0625 337.839844 297.246094 344.433594 304.253906 C 344.457031 304.273438 344.476562 304.292969 344.496094 304.3125 C 353.421875 313.621094 362.6875 324.234375 371.894531 333.667969 C 373.347656 335.171875 376.066406 335.171875 377.519531 333.667969 C 386.726562 324.234375 395.996094 313.621094 404.917969 304.3125 L 404.980469 304.253906 C 411.574219 297.246094 411.695312 286.0625 404.917969 279.238281 C 401.980469 275.820312 396.921875 273.1875 392.8125 272.453125 C 392.160156 272.347656 391.46875 272.285156 390.792969 272.269531 Z M 358.871094 280.097656 C 361.308594 279.988281 364.132812 280.894531 368.042969 284.808594 L 371.957031 288.71875 C 373.402344 290.152344 376.011719 290.152344 377.460938 288.71875 L 381.375 284.808594 L 381.4375 284.808594 C 385.878906 280.378906 388.925781 279.730469 391.585938 280.160156 C 394.742188 281.117188 397.964844 283.191406 399.414062 284.867188 C 403.019531 288.566406 402.984375 294.90625 399.292969 298.871094 C 399.28125 298.890625 399.300781 298.925781 399.292969 298.933594 C 391.132812 307.445312 382.816406 316.734375 374.707031 325.230469 C 366.609375 316.746094 358.339844 307.4375 350.183594 298.933594 C 350.164062 298.910156 350.144531 298.894531 350.125 298.871094 C 346.453125 294.902344 346.402344 288.558594 350 284.867188 C 351.472656 282.960938 355.050781 280.65625 357.828125 280.15625 C 358.164062 280.105469 358.519531 280.113281 358.867188 280.097656 Z M 358.871094 280.097656 " fill-opacity="1" fill-rule="nonzero"/></g><g fill="#000000" fill-opacity="1"><g transform="translate(114.345698, 420.075002)"><g><path d="M 19.363281 -1.808594 C 35.441406 -11.121094 49.378906 -48.371094 47.097656 -67.535156 C 46.09375 -76.042969 42.140625 -78.921875 39.058594 -79.859375 C 30.417969 -82.40625 15.207031 -76.378906 8.308594 -69.675781 C 4.757812 -66.195312 4.554688 -63.511719 5.023438 -61.839844 C 5.628906 -59.492188 7.839844 -57.886719 11.65625 -56.949219 C 12.59375 -56.679688 13.535156 -57.28125 13.800781 -58.222656 C 14.003906 -59.160156 13.464844 -60.097656 12.527344 -60.296875 C 10.117188 -60.902344 8.644531 -61.773438 8.375 -62.777344 C 8.105469 -63.78125 8.976562 -65.390625 10.785156 -67.132812 C 16.816406 -73.027344 30.886719 -78.65625 38.054688 -76.511719 C 41.136719 -75.574219 43.011719 -72.425781 43.617188 -67.132812 C 45.691406 -49.308594 32.425781 -13.464844 17.621094 -4.890625 C 14.136719 -2.410156 9.511719 -2.546875 6.230469 -5.160156 C 5.695312 -5.5625 5.023438 -5.695312 4.421875 -5.425781 C 3.820312 -5.226562 3.417969 -4.621094 3.351562 -4.019531 C 3.28125 -3.351562 3.550781 -2.679688 4.085938 -2.34375 C 6.363281 -0.601562 9.042969 0.335938 11.859375 0.335938 C 14.539062 0.335938 17.085938 -0.46875 19.363281 -1.808594 Z M 19.363281 -1.808594 "/></g></g></g><g fill="#000000" fill-opacity="1"><g transform="translate(155.481267, 420.075002)"><g><path d="M 58.554688 -16.683594 C 58.152344 -16.949219 57.75 -17.152344 57.28125 -17.152344 C 56.8125 -17.085938 56.34375 -16.882812 56.078125 -16.546875 C 55.875 -16.414062 41.136719 -0.671875 28.339844 -5.828125 C 25.59375 -7.300781 23.382812 -9.511719 21.839844 -12.261719 C 21.304688 -13.132812 20.636719 -14.003906 19.832031 -14.804688 C 18.960938 -15.878906 17.621094 -16.480469 16.214844 -16.546875 C 12.796875 -16.816406 8.644531 -14.539062 3.683594 -9.847656 C 3.550781 -9.714844 3.351562 -9.648438 3.148438 -9.78125 C 2.949219 -9.847656 2.8125 -10.117188 2.882812 -10.316406 L 4.355469 -16.882812 C 4.621094 -17.820312 4.019531 -18.828125 3.082031 -19.027344 C 2.144531 -19.226562 1.207031 -18.625 0.9375 -17.6875 L -2.410156 -3.015625 C -2.613281 -2.210938 -2.210938 -1.40625 -1.472656 -1.070312 C -0.738281 -0.671875 0.132812 -0.871094 0.671875 -1.472656 C 9.648438 -11.992188 14.203125 -12.996094 15.8125 -13.066406 C 17.417969 -13.132812 18.425781 -11.054688 18.960938 -10.25 C 20.835938 -6.96875 23.648438 -4.289062 27 -2.613281 C 42.007812 3.484375 57.953125 -13.464844 58.621094 -14.203125 C 59.292969 -14.875 59.226562 -16.011719 58.554688 -16.683594 Z M 58.554688 -16.683594 "/></g></g></g><g fill="#000000" fill-opacity="1"><g transform="translate(211.288961, 420.075002)"><g><path d="M 55.207031 -17.488281 C 54.9375 -17.820312 54.46875 -18.023438 54 -18.023438 C 53.53125 -18.023438 53.0625 -17.886719 52.726562 -17.554688 C 43.480469 -8.777344 28.273438 -6.902344 17.351562 -6.230469 C 17.015625 -6.164062 16.816406 -6.699219 17.015625 -7.035156 C 17.886719 -8.171875 18.492188 -9.511719 18.757812 -10.921875 C 19.296875 -14.539062 17.152344 -18.023438 13.601562 -19.027344 C 10.453125 -20.300781 7.035156 -18.355469 3.28125 -13.398438 C 3.015625 -13.066406 2.679688 -13.199219 2.746094 -13.601562 C 3.015625 -15.609375 3.28125 -17.554688 3.550781 -19.363281 C 3.683594 -20.03125 3.417969 -20.636719 2.949219 -21.039062 C 2.410156 -21.507812 1.742188 -21.574219 1.140625 -21.304688 C 0.535156 -21.105469 0.132812 -20.5 0.0664062 -19.898438 C -0.671875 -14.539062 -1.539062 -8.976562 -2.480469 -3.617188 C -8.574219 8.644531 -15.207031 27.535156 -12.058594 30.484375 C -11.589844 30.953125 -10.921875 31.222656 -10.25 31.222656 C -9.914062 31.222656 -9.648438 31.222656 -9.3125 31.085938 C -5.492188 29.746094 -1.808594 13.199219 0.9375 -2.679688 C 1.003906 -2.8125 1.003906 -2.882812 1.070312 -2.949219 C 2.949219 -7.101562 5.5625 -10.921875 8.710938 -14.203125 C 9.714844 -15.140625 11.1875 -16.214844 12.328125 -15.746094 C 14.605469 -14.804688 15.609375 -13.398438 15.277344 -11.523438 C 14.40625 -8.441406 11.722656 -6.097656 8.507812 -5.628906 C 8.105469 -5.628906 7.703125 -5.5625 7.300781 -5.5625 C 6.363281 -5.425781 5.695312 -4.621094 5.695312 -3.683594 C 5.828125 -2.746094 6.566406 -2.078125 7.503906 -2.078125 C 7.972656 -2.078125 8.441406 -2.078125 8.910156 -2.144531 C 10.183594 -2.277344 11.65625 -2.34375 13.332031 -2.410156 C 24.65625 -3.082031 43.683594 -4.085938 55.140625 -15.007812 C 55.539062 -15.277344 55.675781 -15.746094 55.742188 -16.214844 C 55.742188 -16.683594 55.539062 -17.152344 55.207031 -17.488281 Z M -9.3125 25.527344 C -8.441406 21.507812 -7.371094 17.554688 -5.960938 13.734375 C -6.765625 17.753906 -7.90625 21.640625 -9.3125 25.527344 Z M -9.3125 25.527344 "/></g></g></g><g fill="#000000" fill-opacity="1"><g transform="translate(264.081836, 420.075002)"><g><path d="M 58.085938 -18.828125 C 57.75 -19.160156 57.28125 -19.296875 56.8125 -19.296875 C 56.34375 -19.296875 55.941406 -19.09375 55.609375 -18.757812 C 49.578125 -12.394531 36.042969 -3.082031 26.128906 -3.082031 L 25.996094 -3.082031 C 23.25 -2.949219 20.636719 -4.019531 18.757812 -5.960938 C 16.347656 -8.574219 18.023438 -15.675781 18.828125 -17.957031 C 19.160156 -18.828125 18.757812 -19.765625 17.957031 -20.097656 C 17.21875 -20.5 16.214844 -20.300781 15.746094 -19.5625 C 10.585938 -12.058594 3.214844 -4.757812 0.804688 -6.164062 C 0 -6.699219 1.207031 -11.859375 4.488281 -17.6875 C 4.890625 -18.492188 4.621094 -19.496094 3.820312 -19.964844 C 3.015625 -20.433594 1.941406 -20.234375 1.472656 -19.429688 C -0.804688 -15.476562 -5.5625 -5.894531 -1.003906 -3.148438 C 2.613281 -1.003906 7.503906 -4.488281 11.589844 -8.710938 C 11.992188 -9.179688 12.59375 -9.3125 13.132812 -9.113281 C 13.667969 -8.976562 14.070312 -8.507812 14.203125 -7.90625 C 14.40625 -6.296875 15.074219 -4.824219 16.144531 -3.550781 C 18.691406 -0.871094 22.242188 0.601562 25.929688 0.46875 L 26.128906 0.46875 C 37.183594 0.46875 51.519531 -9.3125 58.152344 -16.28125 C 58.488281 -16.683594 58.621094 -17.085938 58.621094 -17.554688 C 58.621094 -18.023438 58.421875 -18.492188 58.085938 -18.828125 Z M 58.085938 -18.828125 "/></g></g></g><g fill="#000000" fill-opacity="1"><g transform="translate(319.487558, 420.075002)"><g><path d="M 45.960938 -18.222656 C 45.289062 -18.894531 44.152344 -18.894531 43.480469 -18.15625 C 43.347656 -18.023438 25.191406 0.269531 13.132812 -4.289062 C 7.773438 -6.363281 5.492188 -12.59375 4.621094 -18.757812 C 5.828125 -21.707031 7.839844 -26.597656 9.714844 -32.09375 C 9.914062 -32.761719 10.117188 -32.828125 10.921875 -32.894531 C 19.964844 -33.566406 28.941406 -33.902344 34.234375 -33.902344 C 35.242188 -33.902344 35.976562 -34.703125 35.976562 -35.644531 C 35.976562 -36.648438 35.242188 -37.382812 34.234375 -37.382812 C 29.144531 -37.382812 20.769531 -36.984375 12.195312 -36.511719 C 11.859375 -36.445312 11.253906 -36.648438 11.722656 -37.855469 C 14.941406 -47.03125 17.21875 -56.34375 15.8125 -59.160156 C 14.40625 -61.972656 12.527344 -62.039062 11.589844 -61.839844 C 6.632812 -60.902344 3.015625 -48.039062 1.40625 -37.519531 C 1.273438 -36.582031 0.804688 -35.777344 -0.0664062 -35.710938 C -10.585938 -34.90625 -19.226562 -34.300781 -19.363281 -34.300781 C -20.367188 -34.234375 -21.105469 -33.433594 -21.039062 -32.425781 C -21.039062 -31.488281 -20.234375 -30.683594 -19.226562 -30.75 L -19.09375 -30.75 C -18.894531 -30.75 -10.785156 -31.355469 -0.671875 -32.09375 C -0.335938 -32.160156 0 -32.09375 0.269531 -31.824219 C 0.535156 -31.621094 0.738281 -31.289062 0.738281 -30.953125 C -0.269531 -15.007812 3.75 -4.085938 11.859375 -1.003906 C 13.601562 -0.402344 15.410156 -0.0664062 17.285156 -0.0664062 C 30.550781 -0.0664062 45.289062 -15.007812 46.027344 -15.675781 C 46.363281 -16.011719 46.496094 -16.480469 46.496094 -16.949219 C 46.496094 -17.417969 46.296875 -17.886719 45.960938 -18.222656 Z M 4.957031 -37.652344 C 6.5 -47.835938 9.582031 -55.875 11.390625 -57.953125 C 11.589844 -58.085938 11.859375 -58.152344 12.125 -58.085938 C 12.328125 -58.019531 12.527344 -57.886719 12.664062 -57.617188 C 13.464844 -55.875 11.1875 -47.367188 7.773438 -37.25 C 7.636719 -36.648438 7.167969 -36.179688 6.5 -36.113281 C 6.164062 -36.042969 5.828125 -36.042969 5.425781 -36.042969 C 4.757812 -36.042969 4.890625 -37.117188 4.957031 -37.585938 Z M 4.152344 -27.132812 C 3.484375 -27.132812 3.75 -31.824219 4.355469 -32.492188 C 4.890625 -32.828125 5.5625 -32.894531 6.097656 -32.5625 C 6.699219 -32.023438 4.890625 -27.132812 4.152344 -27.132812 Z M 4.152344 -27.132812 "/></g></g></g><g fill="#000000" fill-opacity="1"><g transform="translate(362.298026, 420.075002)"><g><path d="M 60.96875 -36.378906 C 59.960938 -36.3125 56.210938 -36.113281 51.589844 -35.777344 C 51.050781 -35.777344 50.515625 -35.976562 50.179688 -36.445312 C 49.847656 -36.914062 49.847656 -37.453125 50.046875 -37.988281 C 56.078125 -52.324219 60.164062 -67.265625 56.34375 -76.042969 C 54.601562 -80.128906 50.785156 -83.011719 46.296875 -83.613281 C 26.933594 -87.164062 10.652344 -71.488281 5.226562 -54.9375 C 1.140625 -42.609375 3.75 -32.09375 11.925781 -28.070312 C 12.796875 -27.671875 13.867188 -28.003906 14.269531 -28.875 C 14.671875 -29.746094 14.335938 -30.820312 13.464844 -31.222656 C 5.628906 -35.105469 5.761719 -45.425781 8.574219 -53.867188 C 13.535156 -68.941406 28.207031 -83.34375 45.691406 -80.128906 C 48.976562 -79.726562 51.855469 -77.648438 53.128906 -74.636719 C 56.8125 -66.261719 51.722656 -50.785156 45.425781 -36.113281 C 45.023438 -35.242188 44.085938 -35.171875 43.480469 -35.171875 C 38.121094 -34.90625 32.828125 -34.167969 27.601562 -32.894531 C 26.730469 -32.5625 26.328125 -31.488281 26.664062 -30.617188 C 27.066406 -29.746094 28.070312 -29.277344 29.011719 -29.679688 C 32.761719 -30.550781 36.648438 -31.085938 40.535156 -31.355469 C 41.136719 -31.421875 41.671875 -31.152344 42.007812 -30.683594 C 42.34375 -30.214844 42.410156 -29.613281 42.140625 -29.078125 C 34.972656 -14.40625 27.335938 -2.277344 27.199219 -2.011719 C 26.730469 -1.207031 26.933594 -0.132812 27.738281 0.335938 C 28.539062 0.871094 29.613281 0.671875 30.148438 -0.132812 C 36.378906 -10.117188 42.007812 -20.433594 46.964844 -31.085938 C 47.234375 -31.621094 47.769531 -31.957031 48.304688 -32.023438 C 52.859375 -32.359375 57.417969 -32.695312 61.167969 -32.894531 C 61.636719 -32.894531 62.039062 -33.097656 62.375 -33.5 C 62.710938 -33.832031 62.84375 -34.300781 62.84375 -34.773438 C 62.710938 -35.710938 61.90625 -36.378906 60.96875 -36.378906 Z M 60.96875 -36.378906 "/></g></g></g><g fill="#000000" fill-opacity="1"><g transform="translate(419.914609, 420.075002)"><g><path d="M 56.011719 -16.214844 C 55.339844 -16.949219 54.199219 -17.015625 53.464844 -16.347656 C 53.261719 -16.144531 33.363281 1.742188 21.039062 -6.363281 C 16.144531 -9.582031 14.941406 -17.351562 14.941406 -17.417969 C 14.875 -18.222656 14.269531 -18.828125 13.464844 -18.960938 C 12.730469 -19.027344 11.925781 -18.625 11.589844 -17.957031 C 8.441406 -10.988281 2.882812 -2.144531 1.339844 -3.148438 C 1.207031 -3.148438 0.9375 -3.417969 0.738281 -3.886719 C -0.0664062 -6.097656 0.199219 -8.507812 1.339844 -10.585938 C 3.886719 -15.8125 8.574219 -19.5625 14.203125 -20.96875 C 14.804688 -21.105469 15.277344 -21.574219 15.476562 -22.175781 C 15.675781 -22.777344 15.476562 -23.449219 15.074219 -23.917969 C 14.605469 -24.320312 14.003906 -24.519531 13.398438 -24.386719 C 6.699219 -22.777344 1.140625 -18.222656 -1.875 -12.058594 C -3.484375 -9.042969 -3.683594 -5.425781 -2.410156 -2.277344 C -1.808594 -0.738281 -0.335938 0.335938 1.339844 0.335938 L 1.40625 0.335938 C 4.691406 0.269531 8.777344 -3.820312 11.589844 -8.242188 C 11.925781 -8.777344 12.527344 -9.042969 13.132812 -8.976562 C 13.734375 -8.976562 14.269531 -8.644531 14.539062 -8.105469 C 15.675781 -6.230469 17.21875 -4.621094 19.09375 -3.484375 C 33.699219 6.230469 54.9375 -12.929688 55.875 -13.734375 C 56.210938 -14.070312 56.410156 -14.539062 56.410156 -14.941406 C 56.480469 -15.410156 56.277344 -15.878906 56.011719 -16.214844 Z M 56.011719 -16.214844 "/></g></g></g><g fill="#000000" fill-opacity="1"><g transform="translate(474.047403, 420.075002)"><g><path d="M 57.75 -17.621094 C 57.417969 -17.957031 57.015625 -18.15625 56.546875 -18.15625 C 56.078125 -18.15625 55.609375 -17.957031 55.273438 -17.621094 C 43.683594 -6.296875 23.113281 -3.886719 18.691406 -6.5 C 15.675781 -8.242188 16.011719 -10.316406 18.15625 -14.472656 C 19.160156 -16.480469 20.300781 -18.828125 18.355469 -20.234375 C 16.546875 -21.574219 14.804688 -20.703125 13.265625 -19.898438 C 11.054688 -18.625 8.574219 -17.957031 5.960938 -17.957031 C 5.359375 -17.957031 4.824219 -19.027344 4.957031 -19.429688 C 8.710938 -27.671875 7.035156 -29.210938 6.433594 -29.8125 C 5.425781 -30.820312 3.886719 -30.75 2.011719 -29.613281 C -1.070312 -27.402344 -2.410156 -23.449219 -1.339844 -19.765625 C -1.070312 -18.757812 -0.601562 -17.820312 0.0664062 -17.015625 C 0 -16.28125 0.335938 -15.609375 1.003906 -15.277344 C 1.40625 -15.074219 1.875 -15.074219 2.34375 -15.207031 C 3.484375 -14.671875 4.757812 -14.40625 6.03125 -14.40625 C 8.777344 -14.335938 11.457031 -14.941406 13.867188 -16.28125 C 14.804688 -16.75 15.140625 -16.347656 15.007812 -16.078125 C 13.398438 -12.929688 10.519531 -7.167969 16.949219 -3.417969 C 19.226562 -2.34375 21.773438 -1.875 24.320312 -2.078125 C 33.699219 -2.078125 48.4375 -6.097656 57.683594 -15.140625 C 58.019531 -15.410156 58.222656 -15.878906 58.222656 -16.347656 C 58.289062 -16.816406 58.085938 -17.285156 57.75 -17.621094 Z M 1.941406 -21.304688 C 1.539062 -23.25 2.210938 -25.257812 3.75 -26.53125 C 3.28125 -24.722656 2.679688 -22.980469 1.941406 -21.238281 Z M 1.941406 -21.304688 "/></g></g></g><g fill="#000000" fill-opacity="1"><g transform="translate(528.984168, 420.075002)"><g><path d="M 73.496094 -17.015625 C 72.757812 -17.621094 71.621094 -17.488281 71.015625 -16.75 C 70.882812 -16.546875 55.941406 1.675781 42.207031 -6.296875 C 40.398438 -7.570312 38.992188 -9.3125 38.253906 -11.324219 C 36.984375 -13.867188 35.441406 -16.949219 31.152344 -16.28125 C 28.941406 -15.945312 25.527344 -13.132812 22.644531 -9.914062 C 22.511719 -9.714844 22.242188 -9.648438 22.042969 -9.714844 C 21.839844 -9.78125 21.640625 -9.914062 21.640625 -10.183594 C 21.105469 -13.199219 19.09375 -15.746094 16.28125 -16.949219 C 14.003906 -17.554688 10.316406 -18.222656 2.613281 -10.585938 C 2.210938 -10.25 1.675781 -10.382812 1.742188 -10.921875 C 1.742188 -11.1875 3.082031 -16.617188 3.082031 -16.617188 C 3.28125 -17.554688 2.679688 -18.492188 1.742188 -18.757812 C 0.804688 -18.960938 -0.132812 -18.355469 -0.402344 -17.417969 L -3.617188 -3.28125 C -3.820312 -2.480469 -3.417969 -1.675781 -2.679688 -1.273438 C -1.875 -0.9375 -1.003906 -1.140625 -0.535156 -1.808594 C 8.441406 -13.066406 12.863281 -14.136719 14.671875 -13.867188 C 16.480469 -13.535156 18.894531 -9.914062 18.625 -4.085938 C 18.625 -3.28125 19.09375 -2.546875 19.898438 -2.34375 C 20.703125 -2.078125 21.507812 -2.410156 21.90625 -3.082031 C 24.65625 -7.773438 30.015625 -12.527344 31.691406 -12.796875 C 33.296875 -13.066406 33.765625 -12.460938 35.105469 -9.78125 C 36.113281 -7.101562 37.988281 -4.824219 40.398438 -3.28125 C 43.214844 -1.609375 46.429688 -0.671875 49.710938 -0.671875 C 62.507812 -0.671875 73.226562 -13.800781 73.765625 -14.539062 C 74.367188 -15.277344 74.234375 -16.414062 73.496094 -17.015625 Z M 73.496094 -17.015625 "/></g></g></g><g fill="#000000" fill-opacity="1"><g transform="translate(599.530995, 420.075002)"><g><path d="M 56.011719 -16.214844 C 55.339844 -16.949219 54.199219 -17.015625 53.464844 -16.347656 C 53.261719 -16.144531 33.363281 1.742188 21.039062 -6.363281 C 16.144531 -9.582031 14.941406 -17.351562 14.941406 -17.417969 C 14.875 -18.222656 14.269531 -18.828125 13.464844 -18.960938 C 12.730469 -19.027344 11.925781 -18.625 11.589844 -17.957031 C 8.441406 -10.988281 2.882812 -2.144531 1.339844 -3.148438 C 1.207031 -3.148438 0.9375 -3.417969 0.738281 -3.886719 C -0.0664062 -6.097656 0.199219 -8.507812 1.339844 -10.585938 C 3.886719 -15.8125 8.574219 -19.5625 14.203125 -20.96875 C 14.804688 -21.105469 15.277344 -21.574219 15.476562 -22.175781 C 15.675781 -22.777344 15.476562 -23.449219 15.074219 -23.917969 C 14.605469 -24.320312 14.003906 -24.519531 13.398438 -24.386719 C 6.699219 -22.777344 1.140625 -18.222656 -1.875 -12.058594 C -3.484375 -9.042969 -3.683594 -5.425781 -2.410156 -2.277344 C -1.808594 -0.738281 -0.335938 0.335938 1.339844 0.335938 L 1.40625 0.335938 C 4.691406 0.269531 8.777344 -3.820312 11.589844 -8.242188 C 11.925781 -8.777344 12.527344 -9.042969 13.132812 -8.976562 C 13.734375 -8.976562 14.269531 -8.644531 14.539062 -8.105469 C 15.675781 -6.230469 17.21875 -4.621094 19.09375 -3.484375 C 33.699219 6.230469 54.9375 -12.929688 55.875 -13.734375 C 56.210938 -14.070312 56.410156 -14.539062 56.410156 -14.941406 C 56.480469 -15.410156 56.277344 -15.878906 56.011719 -16.214844 Z M 56.011719 -16.214844 "/></g></g></g></svg>